<svg width="20" height="19" viewBox="0 0 20 19" fill="none" xmlns="http://www.w3.org/2000/svg">
<path d="M8.33329 14.2499C9.81244 14.2496 11.249 13.7792 12.4141 12.9136L16.0775 16.3938L17.2558 15.2743L13.5925 11.7942C14.5041 10.6872 14.9996 9.32214 15 7.91658C15 4.42454 12.0091 1.58325 8.33329 1.58325C4.65746 1.58325 1.66663 4.42454 1.66663 7.91658C1.66663 11.4086 4.65746 14.2499 8.33329 14.2499ZM8.33329 3.16659C11.0908 3.16659 13.3333 5.29696 13.3333 7.91658C13.3333 10.5362 11.0908 12.6666 8.33329 12.6666C5.57579 12.6666 3.33329 10.5362 3.33329 7.91658C3.33329 5.29696 5.57579 3.16659 8.33329 3.16659Z" fill="#111321"/>
</svg>
